<svg xmlns="http://www.w3.org/2000/svg" width="18" height="18" viewBox="0 0 18 18"><path d="M0 7.103v3.843c0 .49.926 1.054 1.45 1.054h2.55v-6h-2.55c-.524 0-1.45.613-1.45 1.103zm8.853-3.985l-3.853 2.744v6.294l3.853 2.775c.524 0 1.147-.396 1.147-.887v-10.039c0-.49-.623-.887-1.147-.887zM13.696 9l1.065-1.066c.07-.069.07-.181 0-.25l-.375-.376c-.068-.067-.183-.067-.25 0l-1.066 1.064-1.064-1.065c-.07-.067-.182-.067-.251 0l-.374.376c-.07.07-.07.181 0 .25l1.064 1.067-1.064 1.063c-.07.069-.07.182 0 .251l.374.376c.069.07.181.07.251 0l1.064-1.064 1.066 1.064c.067.07.182.07.25 0l.375-.376c.07-.069.07-.182 0-.251l-1.065-1.063z" fill="#bbb"/></svg>