<svg xmlns="http://www.w3.org/2000/svg" width="18" height="18" viewBox="0 0 18 18"><path d="M0 7.103v3.843c0 .49.926 1.054 1.45 1.054h2.55v-6h-2.55c-.524 0-1.45.613-1.45 1.103zm8.853-3.985l-3.853 2.744v6.294l3.853 2.775c.524 0 1.147-.396 1.147-.887v-10.039c0-.49-.623-.887-1.147-.887zM15.233 3.068l-.66.802c1.234 1.348 2.017 3.142 2.017 5.114 0 1.967-.778 3.76-2.012 5.105l.661.822c1.406-1.586 2.261-3.635 2.261-5.928 0-2.287-.863-4.331-2.267-5.915zm-1.754 1.64l-.588.848c.873.878 1.429 2.09 1.429 3.428 0 1.364-.578 2.599-1.483 3.481l.611.812c1.096-1.117 1.755-2.605 1.755-4.293 0-1.657-.664-3.163-1.724-4.276zm-1.733 1.717l-.472.96c.45.386.736.958.736 1.597 0 .703-.162 1.34-.692 1.723l.455.809c.694-.619 1.133-1.524 1.133-2.53 0-1.02-.449-1.935-1.16-2.559z" fill="#bbb"/></svg>