<?xml version="1.0" encoding="utf-8"?>
<!-- Generator: Adobe Illustrator 16.0.0, SVG Export Plug-In . SVG Version: 6.00 Build 0)  -->
<!DOCTYPE svg PUBLIC "-//W3C//DTD SVG 1.1//EN" "http://www.w3.org/Graphics/SVG/1.1/DTD/svg11.dtd">
<svg version="1.1" id="Layer_1" xmlns="http://www.w3.org/2000/svg" xmlns:xlink="http://www.w3.org/1999/xlink" x="0px" y="0px"
	 width="16px" height="16px" viewBox="0 0 16 16" enable-background="new 0 0 16 16" xml:space="preserve">
<g>
	<path fill="#bbbbbb" d="M8,1c3.859,0,7,3.14,7,7c0,3.859-3.141,7-7,7c-3.86,0-7-3.141-7-7C1,4.14,4.14,1,8,1 M8,0
		C3.582,0,0,3.582,0,8c0,4.418,3.582,8,8,8c4.418,0,8-3.582,8-8C16,3.582,12.418,0,8,0L8,0z"/>
</g>
<g>
	<path fill="#bbbbbb" d="M10.146,11.213H5.845c0.006-0.522,0.132-0.978,0.378-1.368c0.246-0.39,0.582-0.729,1.008-1.017
		c0.204-0.15,0.417-0.296,0.639-0.437C8.092,8.25,8.295,8.099,8.481,7.937C8.667,7.775,8.82,7.6,8.939,7.41
		c0.121-0.189,0.184-0.406,0.189-0.652c0-0.114-0.014-0.235-0.04-0.364C9.062,6.265,9.01,6.145,8.932,6.033
		C8.854,5.922,8.745,5.83,8.607,5.754s-0.318-0.112-0.54-0.112c-0.204,0-0.373,0.041-0.509,0.121
		C7.424,5.844,7.315,5.956,7.235,6.096c-0.081,0.141-0.142,0.308-0.181,0.5C7.016,6.788,6.993,6.995,6.987,7.217H5.961
		c0-0.348,0.047-0.67,0.14-0.967C6.194,5.952,6.333,5.696,6.52,5.48c0.186-0.216,0.412-0.386,0.68-0.509
		c0.267-0.123,0.577-0.184,0.932-0.184c0.384,0,0.704,0.063,0.963,0.189C9.352,5.102,9.56,5.261,9.719,5.453
		c0.159,0.192,0.271,0.4,0.338,0.625c0.065,0.225,0.099,0.439,0.099,0.643c0,0.252-0.039,0.48-0.117,0.684
		C9.96,7.61,9.855,7.797,9.724,7.968c-0.133,0.171-0.282,0.329-0.45,0.473S8.932,8.72,8.751,8.846
		c-0.18,0.126-0.359,0.246-0.54,0.36C8.031,9.32,7.865,9.434,7.712,9.548s-0.286,0.232-0.4,0.355s-0.192,0.254-0.234,0.392h3.069
		V11.213z"/>
</g>
</svg>
