<?xml version="1.0" encoding="utf-8"?>
<!-- Generator: Adobe Illustrator 16.0.0, SVG Export Plug-In . SVG Version: 6.00 Build 0)  -->
<!DOCTYPE svg PUBLIC "-//W3C//DTD SVG 1.1//EN" "http://www.w3.org/Graphics/SVG/1.1/DTD/svg11.dtd">
<svg version="1.1" id="Layer_1" xmlns="http://www.w3.org/2000/svg" xmlns:xlink="http://www.w3.org/1999/xlink" x="0px" y="0px"
	 width="16px" height="16px" viewBox="0 0 16 16" enable-background="new 0 0 16 16" xml:space="preserve">
<g>
	<path fill="#00A1DD" d="M8,1c3.859,0,7,3.14,7,7c0,3.859-3.141,7-7,7c-3.86,0-7-3.141-7-7C1,4.14,4.14,1,8,1 M8,0
		C3.582,0,0,3.582,0,8c0,4.418,3.582,8,8,8c4.418,0,8-3.582,8-8C16,3.582,12.418,0,8,0L8,0z"/>
</g>
<g>
	<path fill="#00A1DD" d="M7.55,7.46c0.168,0.006,0.337-0.006,0.505-0.036c0.168-0.03,0.317-0.083,0.449-0.157
		c0.132-0.075,0.239-0.179,0.32-0.311s0.12-0.294,0.12-0.486c0-0.27-0.091-0.486-0.273-0.648C8.487,5.66,8.252,5.579,7.964,5.579
		c-0.18,0-0.336,0.036-0.468,0.108C7.364,5.759,7.255,5.856,7.168,5.979S7.017,6.24,6.975,6.394C6.933,6.546,6.914,6.704,6.92,6.866
		H5.895c0.012-0.306,0.068-0.589,0.171-0.85c0.102-0.261,0.241-0.488,0.418-0.68c0.178-0.192,0.392-0.342,0.644-0.45
		c0.252-0.108,0.537-0.162,0.855-0.162c0.246,0,0.487,0.036,0.725,0.108c0.236,0.072,0.45,0.177,0.639,0.315S9.686,5.46,9.8,5.673
		s0.171,0.458,0.171,0.733c0,0.318-0.071,0.596-0.216,0.833C9.611,7.477,9.386,7.649,9.08,7.757v0.018
		c0.36,0.072,0.641,0.25,0.842,0.536c0.2,0.285,0.301,0.631,0.301,1.039c0,0.301-0.06,0.568-0.18,0.805
		c-0.12,0.238-0.282,0.439-0.486,0.604c-0.204,0.166-0.44,0.293-0.71,0.383c-0.271,0.09-0.556,0.135-0.855,0.135
		c-0.366,0-0.686-0.053-0.958-0.158c-0.273-0.104-0.501-0.252-0.685-0.445C6.166,10.48,6.026,10.25,5.931,9.98
		c-0.097-0.271-0.147-0.57-0.153-0.9h1.026c-0.013,0.383,0.082,0.703,0.283,0.959c0.201,0.254,0.502,0.381,0.904,0.381
		c0.342,0,0.629-0.098,0.859-0.291c0.23-0.195,0.347-0.473,0.347-0.833c0-0.246-0.048-0.441-0.144-0.585
		C8.957,8.567,8.831,8.458,8.675,8.382C8.52,8.308,8.344,8.261,8.148,8.243C7.954,8.225,7.754,8.219,7.55,8.225V7.46z"/>
</g>
</svg>
